<?xml version="1.0" standalone="no"?>
<!DOCTYPE svg PUBLIC "-//W3C//DTD SVG 20010904//EN"
 "http://www.w3.org/TR/2001/REC-SVG-20010904/DTD/svg10.dtd">
<svg version="1.0" xmlns="http://www.w3.org/2000/svg"
 width="512.000000pt" height="512.000000pt" viewBox="0 0 512.000000 512.000000"
 preserveAspectRatio="xMidYMid meet">

<g transform="translate(0.000000,512.000000) scale(0.100000,-0.100000)"
fill="#e34060" stroke="none">
<path d="M2342 4198 c-106 -13 -285 -60 -393 -103 -456 -182 -813 -563 -962
-1030 -62 -191 -72 -264 -72 -505 0 -188 3 -229 24 -324 117 -547 474 -984
981 -1199 355 -150 777 -168 1153 -46 126 40 333 145 447 226 121 87 296 262
382 383 231 325 342 747 298 1135 -89 775 -676 1368 -1450 1464 -99 13 -305
12 -408 -1z m-160 -925 l378 -378 380 380 380 380 167 -168 168 -167 -380
-380 -380 -380 380 -380 380 -380 -168 -167 -167 -168 -380 380 -380 380 -378
-378 c-207 -207 -382 -377 -387 -377 -5 0 -83 73 -172 162 l-163 163 382 382
383 383 -383 383 -382 382 162 163 c90 89 167 162 173 162 5 0 180 -170 387
-377z"/>
</g>
</svg>
